<?xml version="1.0" standalone="no"?>
<!DOCTYPE svg PUBLIC "-//W3C//DTD SVG 20010904//EN"
 "http://www.w3.org/TR/2001/REC-SVG-20010904/DTD/svg10.dtd">
<svg version="1.0" xmlns="http://www.w3.org/2000/svg"
 width="1080.000000pt" height="1080.000000pt" viewBox="0 0 1080.000000 1080.000000"
 preserveAspectRatio="xMidYMid meet">
<metadata>
Created by potrace 1.14, written by Peter Selinger 2001-2017
</metadata>
<g transform="translate(0.000000,1080.000000) scale(0.100000,-0.100000)"
fill="#000000" stroke="none">
<path d="M5280 8890 c-36 -4 -83 -17 -105 -28 -24 -13 -76 -25 -132 -31 -94
-10 -146 -29 -156 -55 -3 -8 -23 -18 -44 -21 -80 -12 -112 -26 -133 -55 -13
-18 -30 -30 -43 -30 -24 0 -97 -45 -97 -59 0 -5 -20 -18 -45 -30 -27 -13 -49
-31 -55 -46 -5 -13 -24 -31 -43 -38 -21 -9 -38 -26 -46 -45 -7 -17 -25 -35
-41 -42 -17 -7 -33 -24 -39 -40 -5 -16 -21 -36 -36 -46 -14 -9 -35 -35 -47
-58 -11 -23 -36 -58 -54 -79 -19 -21 -34 -48 -34 -62 0 -14 -14 -38 -34 -58
-25 -26 -37 -49 -46 -93 -8 -35 -23 -72 -41 -94 -29 -36 -49 -109 -49 -177 0
-18 -11 -55 -24 -81 -48 -95 -49 -119 -55 -782 l-6 -625 -213 -5 -214 -5 -24
-28 -24 -28 0 -513 c0 -394 3 -516 13 -528 6 -9 35 -28 64 -43 52 -26 54 -27
222 -23 163 3 170 2 175 -17 3 -11 6 -664 6 -1451 0 -1010 3 -1440 11 -1462 8
-24 20 -34 47 -42 25 -8 240 -10 664 -8 l628 3 32 33 33 32 2 1437 c3 1381 3
1438 21 1456 17 17 46 18 468 20 l449 2 38 29 37 28 0 539 0 538 -22 15 c-20
14 -84 16 -488 17 -256 0 -473 4 -483 8 -18 7 -19 26 -18 386 1 209 6 432 12
495 6 63 14 154 18 202 7 78 11 91 39 123 18 19 34 48 37 63 9 42 20 56 46 62
14 3 30 19 39 37 14 29 19 31 100 42 168 21 206 22 330 7 68 -9 128 -16 133
-16 4 0 21 -14 36 -31 24 -25 40 -32 99 -41 61 -10 74 -9 96 6 l26 16 0 570
c0 557 0 570 -20 590 -11 11 -29 20 -40 20 -12 0 -31 11 -43 23 -36 39 -62 47
-185 58 -96 9 -125 16 -162 37 -45 27 -46 27 -280 29 -129 1 -264 -2 -300 -7z"/>
<path d="M6619 3540 c-25 -4 -63 -17 -85 -28 -21 -11 -59 -25 -83 -32 -25 -6
-58 -22 -75 -35 -17 -12 -44 -30 -61 -38 -31 -17 -102 -84 -158 -152 -19 -22
-54 -83 -80 -135 -40 -84 -47 -109 -63 -225 -16 -128 -16 -132 4 -251 29 -164
77 -261 192 -384 49 -52 148 -130 166 -130 6 0 31 -13 56 -30 29 -20 71 -35
124 -45 146 -28 429 -15 501 23 110 59 141 77 169 101 135 113 200 204 251
347 38 108 38 110 37 259 -1 115 -5 160 -18 195 -9 25 -26 74 -38 110 -11 36
-32 79 -47 96 -14 17 -33 44 -42 61 -15 28 -135 137 -214 195 -21 15 -62 34
-93 43 -30 9 -64 23 -76 30 -45 30 -256 44 -367 25z"/>
</g>
</svg>
